HIERARCHY
ROOT SpineBase
{
  OFFSET 0.000000 0.000000 0.000000
  CHANNELS 6 Xposition Yposition Zposition Zrotation Xrotation Yrotation
  JOINT SpineMid
  {
    OFFSET 0.000000 33.083440 0.000000
    CHANNELS 3 Zrotation Xrotation Yrotation
    JOINT SpineShoulder
    {
      OFFSET 0.558506 24.449675 -0.736504
      CHANNELS 3 Zrotation Xrotation Yrotation
      JOINT Neck
      {
        OFFSET 0.217391 8.111287 -0.567822
        CHANNELS 3 Zrotation Xrotation Yrotation
        JOINT Head
        {
          OFFSET 7.446031 11.801502 3.666229
          CHANNELS 3 Zrotation Xrotation Yrotation
          End Site
          {
            OFFSET 0 0 0
          }
        }
      }
      JOINT ShoulderLeft
      {
        OFFSET -6.978130 -4.256921 -13.524796
        CHANNELS 3 Zrotation Xrotation Yrotation
        JOINT ElbowLeft
        {
          OFFSET -3.043144 -26.338172 -5.886887
          CHANNELS 3 Zrotation Xrotation Yrotation
          JOINT WristLeft
          {
            OFFSET 2.789268 -24.631878 -4.945362
            CHANNELS 3 Zrotation Xrotation Yrotation
            JOINT HandLeft
            {
              OFFSET -0.798320 -7.140341 -1.046572
              CHANNELS 3 Zrotation Xrotation Yrotation
              JOINT HandTipLeft
              {
                OFFSET 0.617556 -6.869031 0.697916
                CHANNELS 3 Zrotation Xrotation Yrotation
                End Site
                {
                  OFFSET 0 0 0
                }
              }
              JOINT ThumbLeft
              {
                OFFSET 3.006626 1.618131 1.469274
                CHANNELS 3 Zrotation Xrotation Yrotation
                End Site
                {
                  OFFSET 0 0 0
                }
              }
            }
          }
        }
      }
      JOINT ShoulderRight
      {
        OFFSET 6.944742 -4.350508 17.376808
        CHANNELS 3 Zrotation Xrotation Yrotation
        JOINT ElbowRight
        {
          OFFSET 2.911066 -28.625685 -0.355173
          CHANNELS 3 Zrotation Xrotation Yrotation
          JOINT WristRight
          {
            OFFSET 2.595232 -24.913329 0.292810
            CHANNELS 3 Zrotation Xrotation Yrotation
            JOINT HandRight
            {
              OFFSET 0.665317 -5.806716 -0.872741
              CHANNELS 3 Zrotation Xrotation Yrotation
              JOINT HandTipRight
              {
                OFFSET 0.258236 -5.967012 -0.836686
                CHANNELS 3 Zrotation Xrotation Yrotation
                End Site
                {
                  OFFSET 0 0 0
                }
              }
              JOINT ThumbRight
              {
                OFFSET 1.400323 -0.013632 -3.151104
                CHANNELS 3 Zrotation Xrotation Yrotation
                End Site
                {
                  OFFSET 0 0 0
                }
              }
            }
          }
        }
      }
    }
  }
  JOINT HipLeft
  {
    OFFSET -2.965918 2.224900 -9.131167
    CHANNELS 3 Zrotation Xrotation Yrotation
    JOINT KneeLeft
    {
      OFFSET -10.680547 -32.488878 -3.901067
      CHANNELS 3 Zrotation Xrotation Yrotation
      JOINT AnkleLeft
      {
        OFFSET -12.296468 -36.839548 0.707271
        CHANNELS 3 Zrotation Xrotation Yrotation
        JOINT FootLeft
        {
          OFFSET 10.088429 -4.077239 -7.655692
          CHANNELS 3 Zrotation Xrotation Yrotation
          End Site
          {
            OFFSET 0 0 0
          }
        }
      }
    }
  }
  JOINT HipRight
  {
    OFFSET 3.609339 -0.325791 1.920498
    CHANNELS 3 Zrotation Xrotation Yrotation
    JOINT KneeRight
    {
      OFFSET -1.841307 -33.816709 7.991041
      CHANNELS 3 Zrotation Xrotation Yrotation
      JOINT AnkleRight
      {
        OFFSET -9.945399 -35.849586 5.726204
        CHANNELS 3 Zrotation Xrotation Yrotation
        JOINT FootRight
        {
          OFFSET 2.089643 -8.335693 -4.810981
          CHANNELS 3 Zrotation Xrotation Yrotation
          End Site
          {
            OFFSET 0 0 0
          }
        }
      }
    }
  }
}
MOTION
Frames: 8
Frame Time: 0.033333
-27.008085 79.584788 305.157839 -0.000000 0.000000 -59.249207 0.000000 -0.000000 59.249207 -0.000000 0.000000 0.000000 -0.000000 0.000000 0.000000 0.000000 0.000000 0.000000 -0.000000 0.000000 0.000000 -0.000000 0.000000 0.000000 -0.000000 0.000000 0.000000 -0.000000 0.000000 0.000000 0.000000 0.000000 0.000000 0.000000 0.000000 0.000000 -0.000000 0.000000 0.000000 -0.000000 0.000000 0.000000 -0.000000 0.000000 0.000000 -0.000000 0.000000 0.000000 0.000000 0.000000 0.000000 0.000000 0.000000 0.000000 0.000000 -0.000000 59.249207 -0.000000 0.000000 0.000000 -0.000000 0.000000 0.000000 0.000000 0.000000 0.000000 0.000000 -0.000000 59.249207 -0.000000 0.000000 0.000000 -0.000000 0.000000 0.000000 0.000000 0.000000 0.000000
-26.830270 79.508453 305.263326 0.194421 -0.198644 -58.680714 -0.270759 -0.062835 58.680902 -0.000000 0.000000 0.000000 -0.000000 0.000000 0.000000 0.000000 0.000000 0.000000 -1.003827 0.532460 0.167173 0.268680 -0.175252 0.025676 3.461755 -4.820615 0.035488 -2.733758 4.456438 0.008585 0.000000 0.000000 0.000000 0.000000 0.000000 0.000000 -0.000000 0.000000 0.000000 -0.000000 0.000000 0.000000 -0.744049 -0.974919 -0.006218 0.744051 0.974917 -0.006443 0.000000 0.000000 0.000000 0.000000 0.000000 0.000000 -0.270759 -0.062835 58.680902 -0.000000 0.000000 0.000000 -0.000000 0.000000 0.000000 0.000000 0.000000 0.000000 -0.270759 -0.062835 58.680902 -0.000000 0.000000 0.000000 -0.000000 0.000000 0.000000 0.000000 0.000000 0.000000
-26.676423 79.438195 305.381413 0.363827 -0.391098 -58.124829 -0.524245 -0.102439 58.125603 -0.000000 0.000000 0.000000 -0.000000 0.000000 0.000000 0.000000 0.000000 0.000000 -1.876978 0.987415 0.320425 0.595530 -0.411274 0.018874 6.148255 -8.847750 0.296908 -4.880100 8.254327 0.141429 0.000000 0.000000 0.000000 0.000000 0.000000 0.000000 -0.000000 0.000000 0.000000 -0.000000 0.000000 0.000000 -1.522021 -1.673110 0.014887 0.772044 1.075418 0.038106 0.000000 0.000000 0.000000 0.000000 0.000000 0.000000 -0.524245 -0.102439 58.125603 -0.000000 0.000000 0.000000 -0.043861 0.322351 0.876268 0.000000 0.000000 0.000000 -1.442475 -0.495285 57.896054 0.820765 -0.569049 0.228835 -0.944449 0.374422 0.642163 0.000000 0.000000 0.000000
-26.546545 79.374013 305.512098 0.508450 -0.577523 -57.576589 -0.760102 -0.119547 57.578358 0.875397 -0.362425 0.073763 -0.369771 -0.295504 0.190903 0.000000 0.000000 0.000000 -3.493609 1.732462 0.405067 0.989647 -0.712068 -0.022158 8.173009 -12.214838 0.688952 -6.518836 12.723674 0.425593 0.000000 0.000000 0.000000 0.000000 0.000000 0.000000 -0.874947 0.363509 -0.068219 0.073049 -0.894978 -0.091788 -2.401947 -1.180041 0.200785 1.382643 1.137613 -0.035941 0.000000 0.000000 0.000000 0.000000 0.000000 0.000000 -0.760102 -0.119547 57.578358 -0.000000 0.000000 0.000000 -0.076655 0.480313 1.324421 0.000000 0.000000 0.000000 -2.070633 -0.640541 57.254297 1.147062 -0.820474 0.323582 -1.347480 0.388720 0.880612 0.000000 0.000000 0.000000
-26.440635 79.315907 305.655383 0.628486 -0.758072 -57.031405 -0.173029 0.382279 57.067713 0.236384 -0.070643 0.053976 -0.468082 -0.326067 0.228666 0.000000 0.000000 0.000000 -4.321702 2.151022 0.515508 1.455256 -1.078684 -0.097403 9.613864 -15.042899 1.155581 -7.434207 16.134533 0.592611 0.000000 0.000000 0.000000 0.000000 0.000000 0.000000 -1.090752 0.477055 -0.084607 0.018452 -1.110086 -0.115231 -3.186176 -1.041796 0.349673 2.122100 0.840499 -0.172340 0.000000 0.000000 0.000000 0.000000 0.000000 0.000000 -0.977994 -0.114779 57.034584 -0.000000 0.000000 0.000000 -0.116652 0.636002 1.779172 0.000000 0.000000 0.000000 -2.633046 -0.719858 56.631450 1.415640 -1.049445 0.404044 -1.704387 0.289042 1.062911 0.000000 0.000000 0.000000
-26.358694 79.263878 305.811266 0.724097 -0.932892 -56.484928 -0.164172 0.463059 56.529659 0.250124 -0.044282 0.060795 -0.554527 -0.322200 0.252919 0.000000 0.000000 0.000000 -4.981562 2.491186 0.607832 1.991595 -1.509185 -0.205150 10.524610 -17.438309 1.665425 -7.812093 19.332300 0.659226 0.000000 0.000000 0.000000 0.000000 0.000000 0.000000 -1.268639 0.586710 -0.098048 -0.075784 -1.281781 -0.135259 -3.960123 -0.602329 0.552532 2.980168 0.151710 -0.366564 0.000000 0.000000 0.000000 0.000000 0.000000 0.000000 -1.177582 -0.088654 56.489912 -0.000000 0.000000 0.000000 -0.163820 0.789319 2.240452 0.000000 0.000000 0.000000 -3.127213 -0.734836 56.024258 1.625430 -1.255698 0.469455 -2.015389 0.075629 1.188344 0.000000 0.000000 0.000000
-26.308379 79.184311 306.077440 0.796676 -1.206849 -55.847419 -0.169386 0.562317 55.901882 0.242000 0.046711 0.063018 -0.612831 -0.229615 0.232756 0.000000 0.000000 0.000000 -5.524428 2.839940 0.687676 2.928700 -2.220606 -0.408606 10.632000 -19.229738 2.228859 -7.905648 23.055564 0.703127 0.000000 0.000000 0.000000 0.000000 0.000000 0.000000 -1.376398 -0.149070 -0.196412 -0.446179 -0.799364 -0.089371 -4.887288 -0.404926 0.797609 4.555370 -0.288209 -0.643611 0.000000 0.000000 0.000000 0.000000 0.000000 0.000000 -2.191738 0.360787 55.608882 0.138533 -0.808960 0.250601 -0.254911 1.006998 2.939609 0.000000 0.000000 0.000000 -3.768270 -0.573149 55.333228 1.807492 -1.573673 0.536387 -2.451576 -0.843153 1.197204 0.000000 0.000000 0.000000
-26.335411 79.138685 306.178681 0.778900 -1.292136 -55.350928 -0.091716 0.634540 55.409128 0.243861 0.094863 0.064633 -0.675441 -0.154969 0.207860 0.000000 0.000000 0.000000 -5.823709 3.035544 0.729448 3.497490 -2.824379 -0.546791 10.420653 -19.632423 2.463334 -5.798827 23.637667 0.040606 0.000000 0.000000 0.000000 0.000000 0.000000 0.000000 -1.655327 -0.362486 -0.226958 -0.457675 -0.733030 -0.087879 -5.925070 1.619952 1.356399 5.647466 -3.294727 -1.027521 0.000000 0.000000 0.000000 0.000000 0.000000 0.000000 -2.377610 0.643333 55.033658 0.049330 -1.029378 0.333337 -0.334578 1.195606 3.545159 0.000000 0.000000 0.000000 -3.836063 -0.464923 54.843353 1.798868 -1.583383 0.534902 -2.499955 -1.411432 1.071899 0.000000 0.000000 0.000000
